# xmcd CD database file
#
# Track frame offsets:
#	150
#	32202
#	48543
#	67897
#	86601
#	111445
#	134839
#	159775
#
# Disc length: 2609 seconds
#
# Revision: 0
# Processed by: cddbd v1.5.2PL0 Copyright (c) Steve Scherf et al.
# Submitted via: CDex 1.51
#
DISCID=6b0a2f08
DTITLE=North Mississippi Allstars - North Mississippi Allstars in Concert 2007
DYEAR=2007
DGENRE=Blues
TTITLE0=North Mississippi Allstars - Po Black Maddie..'51 Phantom
TTITLE1=North Mississippi Allstars - Freedom Highway
TTITLE2=North Mississippi Allstars - My Leavin'
TTITLE3=North Mississippi Allstars - Storm
TTITLE4=North Mississippi Allstars - Eyes
TTITLE5=North Mississippi Allstars - Conan
TTITLE6=North Mississippi Allstars - No Mo
TTITLE7=North Mississippi Allstars - Mean Ol' Wind Died Down
EXTD=YEAR: 2007
EXTT0=
EXTT1=
EXTT2=
EXTT3=
EXTT4=
EXTT5=
EXTT6=
EXTT7=
PLAYORDER=
